<svg fill="none" height="257" viewBox="0 0 257 257" width="257" xmlns="http://www.w3.org/2000/svg"><path clip-rule="evenodd" d="m82 115.75h-10.25v5.25h10.25zm-5.25 10.5h-9v9.75h9zm10.25 6.5h10.5v11.25h10.5v5h5.25v9.75h9.5v10h63.75v15.25h-11.75v5h-46.75v-5h-16v-10h-9.75v-9.75h-5v-5h-5.25v-15.25h-5z" fill="#9cdae0" fill-rule="evenodd"/><path clip-rule="evenodd" d="m107.25 101.75h113.25v46.75 1.25 4h-5.5v5.5 4.75h-5.25v4.75h-5.25v5.5h-5.25v5h-42v-5h-14v-5.5h-15.25v-4.75h-5.5v-4.75h-15.25v-9.5-2.25z" fill="#b7e2f4" fill-rule="evenodd"/><path clip-rule="evenodd" d="m129 62.5h46v4.25h6.25v10h12.75v5h10.25v9.75h5.5v23.5h-5.5-7.25-3-2.5-10.25-6.25-6.5-5-15.25-13.25v14h-38v-33.25h5.25v-14h15.25v-5h5v-5h6.5zm-57.25 34h5v8.75h5.25v7h-5.25v3.5h-5z" fill="#d6bfa2" fill-rule="evenodd"/><path clip-rule="evenodd" d="m166.5 67.25h9v4.75h-9zm0 9.75h-13.75v-5h13.75zm0 0h4.75v4.75h9.75v-5h5.25v5h-5v4.75h14v5.5h-4.25v9.75h-4.75v-9.75h-10.25v-5.5h-9.5v-4.5-.25zm38.25 14.75h-9v9.75h9zm-28.75 14.5h-7.25v8.75.25 8.75h-5.75v4.5h-15-4.75v-4.5h-5v-9h-5v9h-5.25v4.25h-5.5v5.25h5.5v10h5.25v-4.75h4.75v10h5.25v5h4.75 4.75v-5.25h-4.75v-5h9.5v5.25h5.25v5h3.75v5h9.75v-5h5v5h19v-5h9.75 15v-35.5h-22v-12h-15.75v8.75h-11.25zm24.25 17.25h-13v.5 4.5h-4.75v10l3.25 4.625h2.625v5.375h11.875zm-96-10h3.25v4.75h9.5v1.5h-12.75v-1.5zm104.25-12h7v9.5h-7zm-75.25-24.5h5v4.75h-5zm33.25 9.75h-9.25v4.75h-4.5v5h10v4.75h13.25v-4.75h-4.75v-5h-4.75zm-23.25 0h9.25v5h-9.25zm19.5 14.75h-9.75v9.5h9.75z" fill="#fffff3" fill-rule="evenodd"/><path clip-rule="evenodd" d="m122.5 86.75h5.5v4.75h-5.5zm-50.75 4.75h-8.5v29.5h8.5zm45.25 26.75h-12.75v-4.75h-1.75v4.75h-5v10h4.75v10h14.75v-10zm21.25-26.5h-5.25v4.75h5.25zm-20.5 51.75h10.25v5.25h-10.25zm39.75 0h-9.5v5h4.75v5h-4.75v5.25h9.25v5h9.25v-5-5.25h-9v-5zm-19.5 5.25h5.25v5h-5.25zm28.75 15.25h9.25v5h-9.25zm24.25 0h-4.75v-5.25h-10.25v5.25h5.25v4.75h9.75zm0 0h14v-5.25h5v-5h-9.75v5h-9.25zm29.25-20.25h-4.75v4.75h4.75zm-28.75-25h8.75v4.75h-13l.5-1.125zm33.5 14.75h-4.75v4.75h4.75z" fill="#ffe295" fill-rule="evenodd"/><path clip-rule="evenodd" d="m71.75 98.5h-4.25v3 4.75h9v-4.75h-4.75z" fill="#fffff3" fill-rule="evenodd"/><path clip-rule="evenodd" d="m117.25 86.5h-5.25l-4.5 4.5v.75h9.75zm-30 19.75h4.75v8.25h-4.75zm-5.25 20h5v5h-5zm25.25 17.25h-5.25v5h5.25zm102.75 15.25h-5v5.25h5zm-10.75 10.25h-5v5.25h5zm-12.75 5h7.25v5h-7.25zm-53.5 10h-5v5h5zm-13.5-20h8.5v5h-8.5zm-42.75-33h-5v5h5z" fill="#213260" fill-rule="evenodd"/><g fill="#0f172a"><path d="m16.5 92h4v4.25h-4z"/><path d="m25.25 106.5h3.5v4.25h-3.5z"/><path d="m33.75 106.5h3v4.25h-3z"/><path d="m37.75 169.5h8.5v4.25h-8.5z"/><path d="m51 169.5h35.5v4.25h-35.5z"/><path d="m68.5 160h3.75v4.25h-3.75z"/><path d="m82 159.5h10v4.75h-10z"/><path d="m17 169.5h7.75v4.25h-7.75z"/><path d="m29.5 155.25h57.5v4.25h-57.5z"/><path d="m38.25 106.5h25v4.25h-25z"/><path d="m17 122.5h24.75v4.25h-24.75z"/><path d="m37.75 131.75h25.5v4.25h-25.5z"/><path d="m33.75 145.75h48.25v4.25h-48.25z"/><path d="m21 145.75h8v4.25h-8z"/><path d="m25.25 92h4v4.25h-4z"/><path d="m33.5 92h4v4.25h-4z"/><path d="m17 106.5h3.5v4.25h-3.5z"/><path d="m42.25 92h21v4.25h-21z"/><path d="m79.75 91.5h12.25v4.75h-12.25z"/><path d="m21 131.75h3.75v4.25h-3.75z"/><path d="m46.5 122.5h3.75v4.25h-3.75z"/><path d="m17 155.25h3.5v4.25h-3.5z"/></g><path clip-rule="evenodd" d="m133 67.25h-4.5v4.75h4.5zm-15.5 4.75h5.25v5h-5.25v4.75h-5.25v-5h5.25zm-20.25 19.5h5v9.75h-5v16.75h-5v3 5.25 8h-5.25v-8h-5v-5.25h5v-6.5h5v-8.25h-4.75v-4.75h4.75v-5.25h5.25zm5 0 4.5-5h-4.5zm-25.5 29.5h-13.5v5.25h13.5zm45.75 2.75h-5.5v7.75h5.5zm-15.5 9.5h4.75v5h-4.75zm-15 11.25h-5v5.25h5zm0 9.5h5.25v5.25h-5.25zm10.25 10h-5v5h5zm15.5 15h5v5h-5zm-.5-77.5h-5v2l-5 4.75h4.5v3h5.5v-2.25-.75-6.5h5.5v-5.25h-5.5zm5.25 9.75h5.5l-1.75 3.75h-3.75l-5.25 3.25v-4.75h.25l5-4.75zm25.5-44h4.75v4.75h-4.75zm-20 14.5h10.25v5 5h-5.25v-5h-5zm20-5h-4.75v5h4.75zm4.5 5h4.75v5h-4.75zm14-4.75h-4.5v5h4.5zm0 9.5h9.5v5h-9.5zm14.5-9.75h-5.25v5h5.25zm0 0h5.25v-5h-5.25zm10 5h-4.75v4.75h4.75zm0 10.25h4.75v4.75h-4.75zm-4.75 4.5h-5v5h5zm-10.25 9.5h5v5h-5zm20 .25-5 4.75v4h5zm-114-5h-5.5v5h5.5zm-5.25 9.25h5.25v5.25h-8.75v-1.75h1.5v-1h.75v-1h1.25zm-.25-19h-4.75v5h4.75zm35.25-9.75h-4.5v5zm21.25 19.75h-4.5l4.5-5zm5.25 4.75-10.25 10.25v2.875h5.25v-4.375h5z" fill="#6d6a94" fill-rule="evenodd"/><path clip-rule="evenodd" d="m148 62.5h-20v4.25h-5.25v5.25h5.75v-4.75h19.5zm-35.75 9.75h5.25v4.5h-5.25v5h-5v4.75h-5v-5h5v-5h5zm-15 19.25v-5h5v5zm-5.25 4.75v-4.75h5.25v4.75zm-10 24.75v-20h5.25v-4.75h4.75v5.25h-4.75v19.5zm15.25 38.25v5h-5.25v-4.75h-5v-9.5h-5v-18.25h-2.25v4.5h-3.25v4.75h-9v-4.75h-4.25v-10h4.5v9.75h8.75v-4.75h.25v-10.25h5.25v10.25h5v18.5h5v9.5zm0 0v-5.25h4.75v5.25zm-29.75-72.5h8.75v4.75h-8.5v5h-4.5v-5h4.25zm12.25 4.75h-3.25v9.75h3.25zm48.25 57.25h-10.25v5h10.25zm38.25 20h-8.75v5h8.75zm4.75 5.25h5.25v5h-5.25zm-18.25-111.5h22.75v4.25h5.75v5.25h-5.75v-4.75h-22.75zm33.5 9.5h7.5v4.5h5.25v5h5.5v5h5.25v4.75h4.75v5h5.25v5.25h4.5v4.75h.75v11.75h5v20.5h-4.75v15.25h-5v10.25h-5.25v5.25h-5.25v5h-5.25v4.75h-5.25v-5h5.25v-5.25h5.25v-5h5.25v-10.5h5.25v-15h4.75v-19.75h-5.25v5h-4.75v5h-5v-5h-4v-5.25h-3v-6.5-5.5-4.75h5.5v4.75h3v4.75h4v-4.25-.5-4.75h-1-4.75v-9.75h-5.25v-5h-5.5v-5h-5.25v-5h-7.5zm13 107v5h-12.5v5h-11.75v4.75h-46.75v-4.75h46.5v-5h11.75v-5zm-6-55.5h-6v4.75h-4.75v10h4.75v1.25l3.5 3.5h11.75c1.519 0 2.75-1.231 2.75-2.75v-2h4.5v-5h-4.25v-5h-12.25zm0 4.75v5h12v5h-18v-10zm-75.25 55.75h10v4.5h-10zm-.25-5h-5.5v-5h5v-5.25h-5v5.25h-10v-5h5v-5.25h-5v5.25h-4.75v5h4.75v5h6v5h9.5zm-5.5-25.5h-5v5.5h5zm-20.25-9.5h5.25v5.5h-5.25zm5.25-26h-5v14.75h5.25v10.75h4.75 5v5.25h4.5v-5.25-5h5.5v-5.25h-5.5v5h-9.5v-10h9.5v-4.75h-9.75v4.75h-4.5v-10h5v-4.75h5v4.75h9.5v5.5h5.5v-5.5h-5.25v-4.75h-5.5v-5.25h-9.5v5h-5zm25.25-12h5.5v5.25h-5.5zm-20.5-9.5h5.25v5h-5v4.75h-5.25v-5h5zm20.5-5h5.25v5h-5.25zm15.75 5h-5.25v5h5.25zm-15.5-19.75h5.25v5h-5.25zm20.75-4.75h-5.25v5h5.25zm-.25 47.25v4.5h4.25v4.75h5.5 4.25 5.75v-9h1.25 3 1.5v-13.25h-1.5v-5h-4.5v-4.75h-9.75-5.5v5h-4.25v4.75h-5v13zm9.75-17.75v4.75h4.25v4.75h5.5v-9.5zm-94.25 14.5h4.5v5h-4.5zm14-9.75h-5.25v4.75h5.25zm65.25 52.5h-5v5.25h5zm.25 10.25h5v5.25h-5zm28.75 10h-5v5.25h5zm-34-.25h5v5.25h-5zm-5-4.75h-5.25v5h5.25z" fill="#010529" fill-rule="evenodd"/><path clip-rule="evenodd" d="m193.25 123.5h7v4.75h-7zm0 9.75v-5h-6v5zm0 0v5h7v-5z" fill="#fb915f" fill-rule="evenodd"/><path d="m187.25 133.25h6v5h-6z" fill="#9c4987"/><path clip-rule="evenodd" d="m87 138.75h5v5.75h-5zm56.25 45.25h17.5v5h-17.5zm14-9.75h-9.5v5h9.5zm12 9.75h5.5v5h-5.5zm17.25-5h-5.5v5h5.5z" fill="#59a6c7" fill-rule="evenodd"/></svg>